<svg width="173" height="52" viewBox="0 0 173 52" fill="none" xmlns="http://www.w3.org/2000/svg">
<path d="M9.93935 38.9393C9.35355 39.5251 9.35355 40.4749 9.93935 41.0607L19.4853 50.6066C20.0711 51.1924 21.0208 51.1924 21.6066 50.6066C22.1924 50.0208 22.1924 49.0711 21.6066 48.4853L13.1213 40L21.6066 31.5147C22.1924 30.9289 22.1924 29.9792 21.6066 29.3934C21.0208 28.8076 20.0711 28.8076 19.4853 29.3934L9.93935 38.9393ZM162 38.5L11 38.5V41.5L162 41.5V38.5Z" fill="#BB946E"/>
<path d="M41.4306 30V13.296H44.2466V20.208H52.9506V13.296H55.7666V30H52.9506V22.704H44.2466V30H41.4306ZM60.5944 25.168C60.5944 24.1013 60.893 23.184 61.4904 22.416C62.109 21.6267 62.9517 21.0187 64.0184 20.592C65.085 20.1653 66.3224 19.952 67.7304 19.952C68.477 19.952 69.2664 20.016 70.0984 20.144C70.9304 20.2507 71.6664 20.4213 72.3064 20.656V19.44C72.3064 18.16 71.9224 17.1573 71.1544 16.432C70.3864 15.6853 69.2984 15.312 67.8904 15.312C66.973 15.312 66.0877 15.4827 65.2344 15.824C64.4024 16.144 63.517 16.6133 62.5784 17.232L61.5544 15.248C62.6424 14.5013 63.7304 13.9467 64.8184 13.584C65.9064 13.2 67.037 13.008 68.2104 13.008C70.3437 13.008 72.029 13.6053 73.2664 14.8C74.5037 15.9733 75.1224 17.616 75.1224 19.728V26.8C75.1224 27.1413 75.1864 27.3973 75.3144 27.568C75.4637 27.7173 75.6984 27.8027 76.0184 27.824V30C75.741 30.0427 75.4957 30.0747 75.2824 30.096C75.0904 30.1173 74.9304 30.128 74.8024 30.128C74.141 30.128 73.6397 29.9467 73.2984 29.584C72.9784 29.2213 72.797 28.8373 72.7544 28.432L72.6904 27.376C71.965 28.3147 71.0157 29.04 69.8424 29.552C68.669 30.064 67.5064 30.32 66.3544 30.32C65.245 30.32 64.253 30.096 63.3784 29.648C62.5037 29.1787 61.821 28.56 61.3304 27.792C60.8397 27.0027 60.5944 26.128 60.5944 25.168ZM71.4744 26.352C71.7304 26.0533 71.933 25.7547 72.0824 25.456C72.2317 25.136 72.3064 24.8693 72.3064 24.656V22.576C71.645 22.32 70.9517 22.128 70.2264 22C69.501 21.8507 68.7864 21.776 68.0824 21.776C66.653 21.776 65.4904 22.064 64.5944 22.64C63.7197 23.1947 63.2824 23.9627 63.2824 24.944C63.2824 25.4773 63.421 26 63.6984 26.512C63.997 27.0027 64.4237 27.408 64.9784 27.728C65.5544 28.048 66.2584 28.208 67.0904 28.208C67.965 28.208 68.797 28.0373 69.5864 27.696C70.3757 27.3333 71.005 26.8853 71.4744 26.352ZM86.4411 30.224C84.8198 30.224 83.4438 29.9253 82.3131 29.328C81.2038 28.7093 80.3505 27.856 79.7531 26.768L82.0571 25.744C82.4411 26.4267 82.9851 26.96 83.6891 27.344C84.4145 27.728 85.2891 27.92 86.3131 27.92C87.5291 27.92 88.4891 27.6533 89.1931 27.12C89.8971 26.5867 90.2491 25.872 90.2491 24.976C90.2491 24.1653 89.9611 23.5147 89.3851 23.024C88.8305 22.512 88.0411 22.2453 87.0171 22.224H85.3211V20.368H87.1131C87.5611 20.368 87.9558 20.2613 88.2971 20.048C88.6598 19.8133 88.9371 19.504 89.1291 19.12C89.3425 18.736 89.4491 18.3093 89.4491 17.84C89.4491 17.0933 89.1825 16.496 88.6491 16.048C88.1158 15.5787 87.3158 15.344 86.2491 15.344C85.3745 15.344 84.6385 15.5147 84.0411 15.856C83.4651 16.1973 82.9958 16.7093 82.6331 17.392L80.4891 16.24C81.0225 15.2373 81.7905 14.4587 82.7931 13.904C83.8171 13.328 85.0118 13.04 86.3771 13.04C87.4651 13.04 88.4251 13.2213 89.2571 13.584C90.1105 13.9253 90.7718 14.4267 91.2411 15.088C91.7318 15.7493 91.9771 16.5493 91.9771 17.488C91.9771 18.2773 91.7851 19.0133 91.4011 19.696C91.0385 20.3573 90.4945 20.8587 89.7691 21.2C90.7718 21.4987 91.5398 22.0213 92.0731 22.768C92.6065 23.4933 92.8731 24.3573 92.8731 25.36C92.8731 26.384 92.5958 27.2587 92.0411 27.984C91.4865 28.7093 90.7291 29.264 89.7691 29.648C88.8091 30.032 87.6998 30.224 86.4411 30.224ZM96.5444 25.168C96.5444 24.1013 96.843 23.184 97.4404 22.416C98.059 21.6267 98.9017 21.0187 99.9684 20.592C101.035 20.1653 102.272 19.952 103.68 19.952C104.427 19.952 105.216 20.016 106.048 20.144C106.88 20.2507 107.616 20.4213 108.256 20.656V19.44C108.256 18.16 107.872 17.1573 107.104 16.432C106.336 15.6853 105.248 15.312 103.84 15.312C102.923 15.312 102.038 15.4827 101.184 15.824C100.352 16.144 99.467 16.6133 98.5284 17.232L97.5044 15.248C98.5924 14.5013 99.6804 13.9467 100.768 13.584C101.856 13.2 102.987 13.008 104.16 13.008C106.294 13.008 107.979 13.6053 109.216 14.8C110.454 15.9733 111.072 17.616 111.072 19.728V26.8C111.072 27.1413 111.136 27.3973 111.264 27.568C111.414 27.7173 111.648 27.8027 111.968 27.824V30C111.691 30.0427 111.446 30.0747 111.232 30.096C111.04 30.1173 110.88 30.128 110.752 30.128C110.091 30.128 109.59 29.9467 109.248 29.584C108.928 29.2213 108.747 28.8373 108.704 28.432L108.64 27.376C107.915 28.3147 106.966 29.04 105.792 29.552C104.619 30.064 103.456 30.32 102.304 30.32C101.195 30.32 100.203 30.096 99.3284 29.648C98.4537 29.1787 97.771 28.56 97.2804 27.792C96.7897 27.0027 96.5444 26.128 96.5444 25.168ZM107.424 26.352C107.68 26.0533 107.883 25.7547 108.032 25.456C108.182 25.136 108.256 24.8693 108.256 24.656V22.576C107.595 22.32 106.902 22.128 106.176 22C105.451 21.8507 104.736 21.776 104.032 21.776C102.603 21.776 101.44 22.064 100.544 22.64C99.6697 23.1947 99.2324 23.9627 99.2324 24.944C99.2324 25.4773 99.371 26 99.6484 26.512C99.947 27.0027 100.374 27.408 100.928 27.728C101.504 28.048 102.208 28.208 103.04 28.208C103.915 28.208 104.747 28.0373 105.536 27.696C106.326 27.3333 106.955 26.8853 107.424 26.352ZM115.319 33.936V27.504H115.671C116.14 27.504 116.567 27.3653 116.951 27.088C117.356 26.8107 117.708 26.3307 118.007 25.648C118.327 24.944 118.583 23.984 118.775 22.768C118.967 21.552 119.095 20.0053 119.159 18.128L119.319 13.296H130.679V27.504H132.951V33.936H130.455V30H117.815V33.936H115.319ZM119.607 27.504H127.863V15.792H121.815L121.719 18.384C121.655 20.1973 121.527 21.7227 121.335 22.96C121.164 24.176 120.93 25.1467 120.631 25.872C120.354 26.5973 120.012 27.1413 119.607 27.504Z" fill="#BB946E"/>
</svg>
