<svg width="173" height="52" viewBox="0 0 173 52" fill="none" xmlns="http://www.w3.org/2000/svg">
<path d="M163.061 41.0607C163.646 40.4749 163.646 39.5251 163.061 38.9393L153.515 29.3934C152.929 28.8076 151.979 28.8076 151.393 29.3934C150.808 29.9792 150.808 30.9289 151.393 31.5147L159.879 40L151.393 48.4853C150.808 49.0711 150.808 50.0208 151.393 50.6066C151.979 51.1924 152.929 51.1924 153.515 50.6066L163.061 41.0607ZM11 41.5H162V38.5H11V41.5Z" fill="#BB946E"/>
<path d="M37.2472 33.936V27.504H37.5992C38.0686 27.504 38.4952 27.3653 38.8792 27.088C39.2846 26.8107 39.6366 26.3307 39.9352 25.648C40.2552 24.944 40.5112 23.984 40.7032 22.768C40.8952 21.552 41.0232 20.0053 41.0872 18.128L41.2472 13.296H52.6073V27.504H54.8792V33.936H52.3833V30H39.7432V33.936H37.2472ZM41.5352 27.504H49.7913V15.792H43.7432L43.6472 18.384C43.5832 20.1973 43.4552 21.7227 43.2632 22.96C43.0926 24.176 42.8579 25.1467 42.5592 25.872C42.2819 26.5973 41.9406 27.1413 41.5352 27.504ZM58.2975 25.168C58.2975 24.1013 58.5962 23.184 59.1935 22.416C59.8122 21.6267 60.6548 21.0187 61.7215 20.592C62.7882 20.1653 64.0255 19.952 65.4335 19.952C66.1802 19.952 66.9695 20.016 67.8015 20.144C68.6335 20.2507 69.3695 20.4213 70.0095 20.656V19.44C70.0095 18.16 69.6255 17.1573 68.8575 16.432C68.0895 15.6853 67.0015 15.312 65.5935 15.312C64.6762 15.312 63.7908 15.4827 62.9375 15.824C62.1055 16.144 61.2202 16.6133 60.2815 17.232L59.2575 15.248C60.3455 14.5013 61.4335 13.9467 62.5215 13.584C63.6095 13.2 64.7402 13.008 65.9135 13.008C68.0468 13.008 69.7322 13.6053 70.9695 14.8C72.2068 15.9733 72.8255 17.616 72.8255 19.728V26.8C72.8255 27.1413 72.8895 27.3973 73.0175 27.568C73.1668 27.7173 73.4015 27.8027 73.7215 27.824V30C73.4442 30.0427 73.1988 30.0747 72.9855 30.096C72.7935 30.1173 72.6335 30.128 72.5055 30.128C71.8442 30.128 71.3428 29.9467 71.0015 29.584C70.6815 29.2213 70.5002 28.8373 70.4575 28.432L70.3935 27.376C69.6682 28.3147 68.7188 29.04 67.5455 29.552C66.3722 30.064 65.2095 30.32 64.0575 30.32C62.9482 30.32 61.9562 30.096 61.0815 29.648C60.2068 29.1787 59.5242 28.56 59.0335 27.792C58.5428 27.0027 58.2975 26.128 58.2975 25.168ZM69.1775 26.352C69.4335 26.0533 69.6362 25.7547 69.7855 25.456C69.9348 25.136 70.0095 24.8693 70.0095 24.656V22.576C69.3482 22.32 68.6548 22.128 67.9295 22C67.2042 21.8507 66.4895 21.776 65.7855 21.776C64.3562 21.776 63.1935 22.064 62.2975 22.64C61.4228 23.1947 60.9855 23.9627 60.9855 24.944C60.9855 25.4773 61.1242 26 61.4015 26.512C61.7002 27.0027 62.1268 27.408 62.6815 27.728C63.2575 28.048 63.9615 28.208 64.7935 28.208C65.6682 28.208 66.5002 28.0373 67.2895 27.696C68.0788 27.3333 68.7082 26.8853 69.1775 26.352ZM77.4563 30.128V27.6C78.0109 27.6 78.5016 27.4613 78.9283 27.184C79.3763 26.8853 79.7709 26.3947 80.1123 25.712C80.4536 25.008 80.7203 24.048 80.9123 22.832C81.1256 21.5947 81.2643 20.0267 81.3283 18.128L81.5203 13.296H92.8803V30H90.0643V15.792H84.0163L83.9523 18.384C83.8669 20.6667 83.6749 22.5653 83.3763 24.08C83.0776 25.5947 82.6616 26.7893 82.1283 27.664C81.5949 28.5387 80.9336 29.168 80.1443 29.552C79.3763 29.936 78.4803 30.128 77.4563 30.128ZM106.42 30.32C105.162 30.32 104.01 30.096 102.964 29.648C101.94 29.1787 101.044 28.5493 100.276 27.76C99.5296 26.9493 98.9429 26.0213 98.5162 24.976C98.1109 23.9307 97.9082 22.8213 97.9082 21.648C97.9082 20.0693 98.2709 18.6293 98.9962 17.328C99.7216 16.0267 100.724 14.9813 102.004 14.192C103.306 13.4027 104.788 13.008 106.452 13.008C108.138 13.008 109.599 13.4133 110.836 14.224C112.095 15.0133 113.066 16.0587 113.748 17.36C114.452 18.64 114.804 20.0267 114.804 21.52C114.804 21.7333 114.794 21.9467 114.772 22.16C114.772 22.352 114.762 22.5013 114.74 22.608H100.884C100.97 23.696 101.268 24.6667 101.78 25.52C102.314 26.352 102.996 27.0133 103.828 27.504C104.66 27.9733 105.556 28.208 106.516 28.208C107.54 28.208 108.5 27.952 109.396 27.44C110.314 26.928 110.943 26.256 111.284 25.424L113.716 26.096C113.354 26.9067 112.81 27.632 112.084 28.272C111.38 28.912 110.538 29.4133 109.556 29.776C108.596 30.1387 107.551 30.32 106.42 30.32ZM100.788 20.656H112.18C112.095 19.568 111.786 18.608 111.252 17.776C110.719 16.944 110.036 16.2933 109.204 15.824C108.372 15.3547 107.455 15.12 106.452 15.12C105.471 15.12 104.564 15.3547 103.732 15.824C102.9 16.2933 102.218 16.944 101.684 17.776C101.172 18.608 100.874 19.568 100.788 20.656ZM126.926 30.32C125.668 30.32 124.516 30.096 123.47 29.648C122.446 29.1787 121.55 28.5493 120.782 27.76C120.036 26.9493 119.449 26.0213 119.022 24.976C118.617 23.9307 118.414 22.8213 118.414 21.648C118.414 20.0693 118.777 18.6293 119.502 17.328C120.228 16.0267 121.23 14.9813 122.51 14.192C123.812 13.4027 125.294 13.008 126.958 13.008C128.644 13.008 130.105 13.4133 131.342 14.224C132.601 15.0133 133.572 16.0587 134.254 17.36C134.958 18.64 135.31 20.0267 135.31 21.52C135.31 21.7333 135.3 21.9467 135.278 22.16C135.278 22.352 135.268 22.5013 135.246 22.608H121.39C121.476 23.696 121.774 24.6667 122.286 25.52C122.82 26.352 123.502 27.0133 124.334 27.504C125.166 27.9733 126.062 28.208 127.022 28.208C128.046 28.208 129.006 27.952 129.902 27.44C130.82 26.928 131.449 26.256 131.79 25.424L134.222 26.096C133.86 26.9067 133.316 27.632 132.59 28.272C131.886 28.912 131.044 29.4133 130.062 29.776C129.102 30.1387 128.057 30.32 126.926 30.32ZM121.294 20.656H132.686C132.601 19.568 132.292 18.608 131.758 17.776C131.225 16.944 130.542 16.2933 129.71 15.824C128.878 15.3547 127.961 15.12 126.958 15.12C125.977 15.12 125.07 15.3547 124.238 15.824C123.406 16.2933 122.724 16.944 122.19 17.776C121.678 18.608 121.38 19.568 121.294 20.656Z" fill="#BB946E"/>
</svg>
